# Blender 3.6.11
# www.blender.org
mtllib crate.mtl
o prop_floor_crate
o object1
v 0.000000 -0.500000 -0.400000
v -0.400000 -0.500000 -0.400000
v -0.400000 -0.500000 0.400000
v 0.000000 -0.500000 0.400000
v 0.000000 -0.500000 0.500000
v -0.500000 -0.500000 0.500000
v -0.500000 -0.500000 -0.500000
v 0.000000 -0.500000 -0.500000
v 0.400000 -0.500000 0.400000
v 0.400000 -0.500000 -0.400000
v 0.500000 -0.500000 -0.500000
v 0.500000 -0.500000 0.500000
v 0.000000 0.500000 -0.400000
v -0.400000 0.500000 -0.400000
v -0.400000 0.500000 0.400000
v 0.000000 0.500000 0.400000
v 0.000000 0.500000 0.500000
v -0.500000 0.500000 0.500000
v -0.500000 0.500000 -0.500000
v 0.000000 0.500000 -0.500000
v 0.400000 0.500000 0.400000
v 0.400000 0.500000 -0.400000
v 0.500000 0.500000 -0.500000
v 0.500000 0.500000 0.500000
v 0.000000 0.400000 0.500000
v -0.400000 0.400000 0.500000
v -0.400000 -0.400000 0.500000
v 0.000000 -0.400000 0.500000
v 0.400000 -0.400000 0.500000
v 0.400000 0.400000 0.500000
v -0.500000 0.000000 0.500000
v 0.500000 0.000000 0.500000
v -0.500000 0.000000 0.400000
v -0.500000 -0.400000 0.400000
v -0.500000 -0.400000 -0.400000
v -0.500000 -0.000000 -0.400000
v -0.500000 -0.000000 -0.500000
v -0.500000 0.400000 -0.400000
v -0.500000 0.400000 0.400000
v 0.000000 0.400000 -0.500000
v -0.400000 0.400000 -0.500000
v -0.400000 -0.400000 -0.500000
v 0.000000 -0.400000 -0.500000
v 0.400000 -0.400000 -0.500000
v 0.400000 0.400000 -0.500000
v 0.500000 -0.000000 -0.500000
v 0.500000 0.000000 0.400000
v 0.500000 -0.400000 0.400000
v 0.500000 -0.400000 -0.400000
v 0.500000 -0.000000 -0.400000
v 0.500000 0.400000 -0.400000
v 0.500000 0.400000 0.400000
v 0.400000 -0.300000 0.450000
v 0.400000 -0.300000 0.475000
v 0.400000 -0.400000 0.475000
v 0.400000 0.400000 0.450000
v -0.300000 0.400000 0.475000
v -0.400000 0.400000 0.475000
v -0.300000 0.400000 0.450000
v -0.400000 0.300000 0.475000
v -0.400000 0.300000 0.450000
v -0.400000 -0.400000 0.450000
v 0.300000 -0.400000 0.450000
v 0.475000 0.400000 -0.400000
v 0.475000 0.300000 -0.400000
v 0.450000 0.300000 -0.400000
v 0.450000 -0.400000 -0.400000
v 0.475000 0.400000 -0.300000
v 0.450000 0.400000 -0.300000
v 0.450000 0.400000 0.400000
v 0.450000 -0.400000 0.300000
v -0.475000 -0.300000 -0.400000
v -0.475000 -0.400000 -0.400000
v -0.450000 0.400000 -0.400000
v -0.450000 -0.300000 -0.400000
v -0.450000 -0.400000 -0.300000
v -0.450000 0.300000 0.400000
v -0.450000 -0.400000 0.400000
v 0.400000 0.300000 -0.475000
v 0.400000 0.300000 -0.450000
v 0.400000 -0.400000 -0.450000
v 0.400000 0.400000 -0.475000
v -0.300000 -0.400000 -0.475000
v -0.300000 -0.400000 -0.450000
v -0.400000 -0.400000 -0.475000
v -0.400000 -0.300000 -0.450000
v 0.300000 0.400000 -0.450000
v -0.400000 0.400000 -0.450000
v -0.400000 0.467500 -0.400000
v -0.400000 0.467500 -0.300000
v -0.400000 0.450000 -0.300000
v -0.400000 0.450000 0.300000
v -0.400000 0.475000 0.300000
v -0.400000 0.475000 0.400000
v -0.100000 0.450000 -0.000000
v 0.450000 -0.300000 0.400000
v 0.475000 -0.300000 0.400000
v 0.475000 -0.400000 0.400000
v 0.475000 -0.400000 0.300000
v 0.300000 0.400000 -0.475000
v -0.400000 -0.300000 -0.475000
v -0.300000 -0.467500 -0.400000
v -0.300000 -0.450000 -0.400000
v 0.300000 -0.450000 -0.400000
v 0.300000 -0.475000 -0.400000
v 0.400000 -0.475000 -0.400000
v -0.400000 -0.467500 -0.400000
v 0.400000 -0.467500 0.400000
v 0.400000 -0.467500 0.300000
v 0.400000 -0.450000 0.300000
v 0.400000 -0.450000 -0.300000
v 0.400000 -0.475000 -0.300000
v -0.300000 -0.475000 0.400000
v -0.400000 -0.475000 0.300000
v -0.400000 -0.475000 0.400000
v 0.000000 0.450000 0.100000
v 0.300000 0.450000 0.400000
v -0.300000 0.450000 0.400000
v 0.300000 0.467500 0.400000
v 0.400000 0.467500 0.400000
v -0.300000 0.475000 0.400000
v 0.400000 0.450000 0.300000
v 0.400000 0.467500 0.300000
v 0.400000 0.475000 -0.400000
v 0.400000 0.475000 -0.300000
v 0.400000 0.450000 -0.300000
v -0.100000 0.467500 -0.000000
v 0.000000 0.467500 -0.100000
v 0.000000 0.450000 -0.100000
v 0.300000 0.450000 -0.400000
v 0.300000 0.475000 -0.400000
v 0.100000 0.467500 -0.000000
v 0.000000 0.467500 0.100000
v 0.100000 0.450000 -0.000000
v 0.300000 -0.400000 0.475000
v -0.475000 0.400000 0.400000
v -0.475000 0.300000 0.400000
v -0.450000 0.400000 0.300000
v -0.475000 0.400000 0.300000
v -0.475000 -0.400000 -0.300000
v 0.100000 -0.450000 -0.000000
v 0.000000 -0.450000 -0.100000
v -0.100000 -0.450000 -0.000000
v -0.400000 -0.450000 -0.300000
v -0.400000 -0.450000 0.300000
v 0.300000 -0.450000 0.400000
v 0.000000 -0.450000 0.100000
v -0.300000 -0.450000 0.400000
v 0.000000 -0.467500 0.100000
v 0.100000 -0.467500 -0.000000
v 0.000000 -0.467500 -0.100000
v -0.100000 -0.467500 -0.000000
v 0.300000 -0.467500 0.400000
v -0.400000 -0.467500 -0.300000
v -0.300000 0.450000 -0.400000
v -0.300000 0.467500 -0.400000
vn -0.0000 -1.0000 -0.0000
vn -0.0000 1.0000 -0.0000
vn -0.0000 -0.0000 1.0000
vn -1.0000 -0.0000 -0.0000
vn -0.0000 -0.0000 -1.0000
vn 1.0000 -0.0000 -0.0000
vn -0.0000 -0.7071 -0.7071
vn -0.0000 0.7071 0.7071
vn -0.7071 0.7071 -0.0000
vn 0.7071 -0.7071 -0.0000
vn -0.7071 -0.0000 -0.7071
vn 0.7071 -0.0000 0.7071
vn -0.7071 -0.7071 -0.0000
vn 0.7071 0.7071 -0.0000
vn -0.0000 -0.7071 0.7071
vn -0.0000 0.7071 -0.7071
vn 0.7071 -0.0000 -0.7071
vn -0.7071 -0.0000 0.7071
vt 1.000000 0.500000
vt 0.900000 0.500000
vt 0.900000 0.100000
vt 1.000000 0.000000
vt 0.100000 0.100000
vt 0.000000 0.500000
vt 0.000000 0.000000
vt 0.000000 1.000000
vt 0.100000 0.900000
vt 0.900000 0.900000
vt 1.000000 1.000000
vt 0.100000 0.500000
vt 0.500000 1.000000
vt 0.500000 0.000000
vt 0.500000 0.900000
vt 0.500000 0.100000
vt 0.500000 0.125000
vt 0.000000 0.125000
vt 0.500000 0.875000
vt 0.000000 0.875000
vt 0.350000 0.875000
vt 0.350000 1.000000
vt 0.875000 1.000000
vt 1.000000 0.875000
vt 0.125000 0.000000
vt 0.350000 0.125000
vt 0.350000 0.000000
vt 0.000000 0.428571
vt 0.700000 0.428571
vt 0.700000 0.571429
vt 0.000000 0.571429
vt 0.300000 0.428571
vt 1.000000 0.428571
vt 0.300000 0.571429
vt 1.000000 0.571429
vt 0.750000 1.000000
vt 1.000000 0.750000
vt 0.250000 0.000000
vt 0.000000 0.250000
s 1
usemtl Wood
f 8/1/1 1/2/1 2/3/1
f 7/4/1 2/3/1 3/5/1
f 3/5/1 5/6/1 6/7/1
f 12/8/1 5/6/1 9/9/1
f 9/9/1 10/10/1 11/11/1
f 9/9/1 11/11/1 12/8/1
f 5/6/1 4/12/1 9/9/1
f 3/5/1 4/12/1 5/6/1
f 3/5/1 6/7/1 7/4/1
f 10/10/1 8/1/1 11/11/1
f 10/10/1 1/2/1 8/1/1
f 7/4/1 8/1/1 2/3/1
f 17/6/2 16/12/2 15/5/2
f 18/7/2 15/5/2 14/3/2
f 14/3/2 20/1/2 19/4/2
f 23/11/2 20/1/2 22/10/2
f 22/10/2 21/9/2 24/8/2
f 24/8/2 23/11/2 22/10/2
f 20/1/2 13/2/2 22/10/2
f 14/3/2 13/2/2 20/1/2
f 19/4/2 18/7/2 14/3/2
f 21/9/2 17/6/2 24/8/2
f 21/9/2 16/12/2 17/6/2
f 18/7/2 17/6/2 15/5/2
f 26/3/3 25/2/3 17/1/3
f 24/11/3 17/1/3 30/10/3
f 32/13/3 30/10/3 29/9/3
f 29/9/3 5/6/3 12/8/3
f 6/7/3 5/6/3 27/5/3
f 31/14/3 6/7/3 27/5/3
f 5/6/3 28/12/3 27/5/3
f 29/9/3 28/12/3 5/6/3
f 29/9/3 12/8/3 32/13/3
f 32/13/3 24/11/3 30/10/3
f 17/1/3 25/2/3 30/10/3
f 31/14/3 27/5/3 26/3/3
f 26/3/3 18/4/3 31/14/3
f 26/3/3 17/1/3 18/4/3
f 35/9/4 36/15/4 37/13/4
f 19/11/4 37/13/4 38/10/4
f 39/3/4 18/4/4 19/11/4
f 39/3/4 31/14/4 18/4/4
f 6/7/4 31/14/4 34/5/4
f 34/5/4 7/8/4 6/7/4
f 31/14/4 33/16/4 34/5/4
f 39/3/4 33/16/4 31/14/4
f 19/11/4 38/10/4 39/3/4
f 37/13/4 36/15/4 38/10/4
f 34/5/4 35/9/4 7/8/4
f 35/9/4 37/13/4 7/8/4
f 20/1/5 40/2/5 41/3/5
f 41/3/5 42/5/5 37/14/5
f 42/5/5 7/7/5 37/14/5
f 42/5/5 8/6/5 7/7/5
f 11/8/5 8/6/5 44/9/5
f 44/9/5 45/10/5 46/13/5
f 45/10/5 23/11/5 46/13/5
f 46/13/5 11/8/5 44/9/5
f 8/6/5 43/12/5 44/9/5
f 42/5/5 43/12/5 8/6/5
f 37/14/5 19/4/5 41/3/5
f 45/10/5 20/1/5 23/11/5
f 45/10/5 40/2/5 20/1/5
f 19/4/5 20/1/5 41/3/5
f 48/5/6 47/16/6 32/14/6
f 24/4/6 32/14/6 52/3/6
f 23/11/6 24/4/6 51/10/6
f 51/10/6 50/15/6 46/13/6
f 11/8/6 46/13/6 49/9/6
f 12/7/6 11/8/6 49/9/6
f 46/13/6 50/15/6 49/9/6
f 51/10/6 46/13/6 23/11/6
f 24/4/6 52/3/6 51/10/6
f 32/14/6 47/16/6 52/3/6
f 49/9/6 48/5/6 12/7/6
f 48/5/6 32/14/6 12/7/6
f 54/17/4 55/14/4 29/4/4
f 54/17/4 29/4/4 30/11/4
f 30/11/4 56/8/4 54/17/4
f 56/8/4 53/18/4 54/17/4
f 26/4/1 58/14/1 57/17/1
f 25/1/1 57/17/1 59/18/1
f 59/18/1 56/8/1 25/1/1
f 56/8/1 30/11/1 25/1/1
f 25/1/1 26/4/1 57/17/1
f 60/19/6 58/13/6 26/11/6
f 26/11/6 27/4/6 60/19/6
f 27/4/6 62/7/6 60/19/6
f 62/7/6 61/20/6 60/19/6
f 51/11/3 64/13/3 65/19/3
f 50/1/3 65/19/3 66/20/3
f 66/20/3 67/7/3 50/1/3
f 67/7/3 49/4/3 50/1/3
f 50/1/3 51/11/3 65/19/3
f 68/19/1 64/13/1 51/11/1
f 51/11/1 52/4/1 68/19/1
f 52/4/1 70/7/1 68/19/1
f 70/7/1 69/20/1 68/19/1
f 35/4/3 73/14/3 72/17/3
f 36/1/3 72/17/3 75/18/3
f 75/18/3 74/8/3 36/1/3
f 74/8/3 38/11/3 36/1/3
f 36/1/3 35/4/3 72/17/3
f 79/19/4 82/13/4 45/11/4
f 45/11/4 44/4/4 79/19/4
f 44/4/4 81/7/4 79/19/4
f 81/7/4 80/20/4 79/19/4
f 42/11/2 85/13/2 83/19/2
f 43/1/2 83/19/2 84/20/2
f 84/20/2 81/7/2 43/1/2
f 81/7/2 44/4/2 43/1/2
f 43/1/2 42/11/2 83/19/2
f 15/4/6 94/14/6 93/17/6
f 93/17/6 92/18/6 90/21/6
f 90/21/6 89/22/6 14/11/6
f 92/18/6 91/20/6 90/21/6
f 14/11/6 15/4/6 90/21/6
f 15/4/6 93/17/6 90/21/6
f 48/4/5 98/14/5 97/17/5
f 47/1/5 97/17/5 96/18/5
f 70/8/5 47/1/5 96/18/5
f 70/8/5 52/11/5 47/1/5
f 47/1/5 48/4/5 97/17/5
f 99/17/2 98/14/2 48/4/2
f 99/17/2 48/4/2 49/11/2
f 49/11/2 67/8/2 99/17/2
f 67/8/2 71/18/2 99/17/2
f 71/11/7 66/4/7 65/7/7
f 71/11/7 65/7/7 99/8/7
f 65/23/6 64/11/6 68/24/6
f 65/23/6 68/24/6 97/25/6
f 97/25/6 98/7/6 99/18/6
f 97/25/6 99/18/6 65/23/6
f 69/11/8 96/4/8 97/7/8
f 69/11/8 97/7/8 68/8/8
f 45/4/1 82/14/1 100/17/1
f 40/1/1 100/17/1 87/18/1
f 87/18/1 88/8/1 40/1/1
f 88/8/1 41/11/1 40/1/1
f 40/1/1 45/4/1 100/17/1
f 101/17/6 85/14/6 42/4/6
f 101/17/6 42/4/6 41/11/6
f 41/11/6 88/8/6 101/17/6
f 88/8/6 86/18/6 101/17/6
f 86/11/9 87/4/9 100/7/9
f 86/11/9 100/7/9 101/8/9
f 100/23/5 82/11/5 79/24/5
f 79/24/5 83/25/5 101/18/5
f 83/25/5 85/7/5 101/18/5
f 101/18/5 100/23/5 79/24/5
f 80/11/10 84/4/10 79/8/10
f 84/4/10 83/7/10 79/8/10
f 10/4/3 106/14/3 105/17/3
f 1/1/3 105/17/3 104/18/3
f 1/1/3 104/18/3 103/20/3
f 103/20/3 102/21/3 1/1/3
f 102/21/3 107/22/3 2/11/3
f 102/21/3 2/11/3 1/1/3
f 1/1/3 10/4/3 105/17/3
f 112/17/4 106/14/4 10/4/4
f 109/21/4 10/4/4 9/11/4
f 109/21/4 110/20/4 111/18/4
f 9/11/4 108/22/4 109/21/4
f 109/21/4 112/17/4 10/4/4
f 109/21/4 111/18/4 112/17/4
f 105/23/1 106/11/1 112/24/1
f 112/24/1 113/25/1 114/18/1
f 113/25/1 115/7/1 114/18/1
f 114/18/1 105/23/1 112/24/1
f 121/19/5 94/13/5 15/11/5
f 118/20/5 121/19/5 16/1/5
f 16/1/5 119/26/5 117/18/5
f 21/4/5 120/27/5 119/26/5
f 16/1/5 21/4/5 119/26/5
f 117/18/5 118/20/5 16/1/5
f 121/19/5 15/11/5 16/1/5
f 22/11/4 124/13/4 125/19/4
f 125/19/4 126/20/4 123/26/4
f 123/26/4 120/27/4 21/4/4
f 126/20/4 122/18/4 123/26/4
f 123/26/4 21/4/4 22/11/4
f 22/11/4 125/19/4 123/26/4
f 130/7/11 129/28/11 128/29/11
f 131/4/11 128/29/11 127/30/11
f 127/30/11 92/8/11 93/11/11
f 127/30/11 95/31/11 92/8/11
f 93/11/11 131/4/11 127/30/11
f 131/4/11 130/7/11 128/29/11
f 93/18/2 94/7/2 121/25/2
f 121/25/2 125/24/2 131/23/2
f 125/24/2 124/11/2 131/23/2
f 131/23/2 93/18/2 121/25/2
f 118/7/12 116/28/12 133/29/12
f 125/11/12 121/4/12 133/29/12
f 132/30/12 126/8/12 125/11/12
f 132/30/12 134/31/12 126/8/12
f 133/29/12 132/30/12 125/11/12
f 121/4/12 118/7/12 133/29/12
f 29/11/2 55/13/2 135/19/2
f 28/1/2 135/19/2 63/20/2
f 63/20/2 62/7/2 28/1/2
f 62/7/2 27/4/2 28/1/2
f 28/1/2 29/11/2 135/19/2
f 135/11/13 60/4/13 63/8/13
f 60/4/13 61/7/13 63/8/13
f 135/18/3 55/7/3 54/25/3
f 54/25/3 57/24/3 60/23/3
f 57/24/3 58/11/3 60/23/3
f 60/23/3 135/18/3 54/25/3
f 57/11/14 54/4/14 53/7/14
f 57/11/14 53/7/14 59/8/14
f 39/11/5 136/13/5 137/19/5
f 33/1/5 137/19/5 77/20/5
f 77/20/5 78/7/5 33/1/5
f 78/7/5 34/4/5 33/1/5
f 33/1/5 39/11/5 137/19/5
f 139/19/1 136/13/1 39/11/1
f 39/11/1 38/4/1 139/19/1
f 38/4/1 74/7/1 139/19/1
f 74/7/1 138/20/1 139/19/1
f 140/17/2 73/14/2 35/4/2
f 140/17/2 35/4/2 34/11/2
f 34/11/2 78/8/2 140/17/2
f 78/8/2 76/18/2 140/17/2
f 137/11/15 140/4/15 76/7/15
f 137/11/15 76/7/15 77/8/15
f 72/24/4 73/11/4 140/23/4
f 140/23/4 137/18/4 139/25/4
f 137/18/4 136/7/4 139/25/4
f 139/25/4 72/24/4 140/23/4
f 72/11/16 139/4/16 138/7/16
f 72/11/16 138/7/16 75/8/16
f 149/32/12 147/33/12 148/4/12
f 150/34/12 149/32/12 113/7/12
f 113/7/12 112/8/12 150/34/12
f 112/8/12 111/11/12 150/34/12
f 111/11/12 141/35/12 150/34/12
f 149/32/12 148/4/12 113/7/12
f 145/11/11 143/35/11 152/34/11
f 114/8/11 152/34/11 151/32/11
f 151/32/11 104/4/11 105/7/11
f 151/32/11 142/33/11 104/4/11
f 105/7/11 114/8/11 151/32/11
f 114/8/11 145/11/11 152/34/11
f 3/11/5 115/13/5 113/19/5
f 4/1/5 113/19/5 148/20/5
f 146/18/5 4/1/5 148/20/5
f 146/18/5 153/26/5 4/1/5
f 153/26/5 108/27/5 9/4/5
f 153/26/5 9/4/5 4/1/5
f 4/1/5 3/11/5 113/19/5
f 114/19/6 115/13/6 3/11/6
f 3/11/6 2/4/6 154/26/6
f 154/26/6 144/18/6 145/20/6
f 2/4/6 107/27/6 154/26/6
f 154/26/6 114/19/6 3/11/6
f 154/26/6 145/20/6 114/19/6
f 110/4/17 109/7/17 141/11/17
f 109/7/17 150/8/17 141/11/17
f 109/36/1 108/11/1 153/37/1
f 153/37/1 149/38/1 150/39/1
f 150/39/1 109/36/1 153/37/1
f 153/8/18 146/11/18 147/4/18
f 153/8/18 147/4/18 149/7/18
f 102/8/17 103/11/17 142/4/17
f 102/8/17 142/4/17 151/7/17
f 154/38/1 107/7/1 102/39/1
f 102/39/1 151/36/1 152/37/1
f 152/37/1 154/38/1 102/39/1
f 144/4/18 154/7/18 143/11/18
f 154/7/18 152/8/18 143/11/18
f 131/17/3 124/14/3 22/4/3
f 130/18/3 131/17/3 13/1/3
f 13/1/3 156/21/3 155/20/3
f 14/11/3 89/22/3 156/21/3
f 13/1/3 14/11/3 156/21/3
f 155/20/3 130/18/3 13/1/3
f 131/17/3 22/4/3 13/1/3
f 90/4/18 91/7/18 95/8/18
f 90/4/18 95/8/18 127/11/18
f 156/37/2 89/11/2 90/36/2
f 127/39/2 128/38/2 90/36/2
f 128/38/2 156/37/2 90/36/2
f 155/8/17 156/11/17 129/7/17
f 156/11/17 128/4/17 129/7/17
f 119/39/2 120/7/2 123/38/2
f 132/37/2 133/36/2 123/38/2
f 133/36/2 119/39/2 123/38/2
f 123/4/17 122/7/17 134/8/17
f 123/4/17 134/8/17 132/11/17
f 117/8/18 119/11/18 133/4/18
f 117/8/18 133/4/18 116/7/18
usemtl Dark_Wood
f 62/7/3 63/8/3 61/4/3
f 67/8/6 66/11/6 71/7/6
f 78/8/4 77/11/4 76/7/4
f 88/11/5 87/4/5 86/8/5
f 92/4/2 95/6/2 91/11/2
f 70/4/6 96/7/6 69/11/6
f 81/7/5 84/8/5 80/4/5
f 118/4/2 117/7/2 116/13/2
f 56/11/3 59/4/3 53/8/3
f 74/4/4 75/7/4 138/11/4
f 111/7/1 110/8/1 141/1/1
f 104/7/1 142/13/1 103/4/1
f 145/11/1 144/4/1 143/6/1
f 148/11/1 147/14/1 146/8/1
f 130/8/2 155/11/2 129/14/2
f 126/8/2 134/1/2 122/7/2
